HIERARCHY
ROOT Hips
{
	 OFFSET 0.00 0.00 0.00
	 CHANNELS 6 Xposition Yposition Zposition Zrotation Yrotation Xrotation
	 JOINT LeftUpLeg
	 {
	 	 OFFSET 1.33 0.00 0.00
	 	 CHANNELS 3 Zrotation Yrotation Xrotation
	 	 JOINT LeftLowLeg
	 	 {
	 	 	 OFFSET 0.00 -4.43 0.00
	 	 	 CHANNELS 3 Zrotation Yrotation Xrotation
	 	 	 JOINT LeftFoot
	 	 	 {
	 	 	 	 OFFSET 0.00 -4.54 0.00
	 	 	 	 CHANNELS 3 Zrotation Yrotation Xrotation
	 	 	 	 End Site
	 	 	 	 {
	 	 	 	 	 OFFSET 0.00 -0.10 0.00
	 	 	 	 }
	 	 	 }
	 	 }
	 }
	 JOINT RightUpLeg
	 {
	 	 OFFSET -1.33 0.00 0.00
	 	 CHANNELS 3 Zrotation Yrotation Xrotation
	 	 JOINT RightLowLeg
	 	 {
	 	 	 OFFSET 0.00 -4.43 0.00
	 	 	 CHANNELS 3 Zrotation Yrotation Xrotation
	 	 	 JOINT RightFoot
	 	 	 {
	 	 	 	 OFFSET 0.00 -4.54 0.00
	 	 	 	 CHANNELS 3 Zrotation Yrotation Xrotation
	 	 	 	 End Site
	 	 	 	 {
	 	 	 	 	 OFFSET 0.00 -0.10 0.00
	 	 	 	 }
	 	 	 }
	 	 }
	 }
	 JOINT Chest
	 {
	 	 OFFSET 0.00 0.00 0.00
	 	 CHANNELS 3 Zrotation Yrotation Xrotation
	 	 JOINT LeftCollar
	 	 {
	 	 	 OFFSET 0.00 4.89 0.00
	 	 	 CHANNELS 3 Zrotation Yrotation Xrotation
	 	 	 JOINT LeftUpArm
	 	 	 {
	 	 	 	 OFFSET 1.51 0.00 0.00
	 	 	 	 CHANNELS 3 Zrotation Yrotation Xrotation
	 	 	 	 JOINT LeftLowArm
	 	 	 	 {
	 	 	 	 	 OFFSET 0.00 -2.79 0.00
	 	 	 	 	 CHANNELS 3 Zrotation Yrotation Xrotation
	 	 	 	 	 End Site
	 	 	 	 	 {
	 	 	 	 	 	 OFFSET 0.00 -2.52 0.00
	 	 	 	 	 }
	 	 	 	 }
	 	 	 }
	 	 }
	 	 JOINT RightCollar
	 	 {
	 	 	 OFFSET 0.00 4.89 0.00
	 	 	 CHANNELS 3 Zrotation Yrotation Xrotation
	 	 	 JOINT RightUpArm
	 	 	 {
	 	 	 	 OFFSET -1.51 0.00 0.00
	 	 	 	 CHANNELS 3 Zrotation Yrotation Xrotation
	 	 	 	 JOINT RightLowArm
	 	 	 	 {
	 	 	 	 	 OFFSET 0.00 -2.79 0.00
	 	 	 	 	 CHANNELS 3 Zrotation Yrotation Xrotation
	 	 	 	 	 End Site
	 	 	 	 	 {
	 	 	 	 	 	 OFFSET 0.00 -2.52 0.00
	 	 	 	 	 }
	 	 	 	 }
	 	 	 }
	 	 }
	 	 JOINT Neck
	 	 {
	 	 	 OFFSET 0.00 4.89 0.00
	 	 	 CHANNELS 3 Zrotation Yrotation Xrotation
	 	 	 End Site
	 	 	 {
	 	 	 	 OFFSET 0.00 1.79 0.00
	 	 	 }
	 	 }
	 }
}

MOTION
Frames: 15
Frame Time: 0.03
-2.36 4.02 9.37 -4.26 6.90 1.75 -2.32 0.04 1.92 0.12 -0.00 0.80 0.00 0.00 0.00 9.26 0.16 -1.93 -8.35 1.70 22.93 0.00 0.00 0.00 0.08 -0.00 0.00 0.00 0.00 0.00 36.01 4.24 9.82 19.17 11.01 -59.46 0.00 0.00 0.00 -41.76 -12.11 11.58 -14.99 -9.62 -65.22 5.90 -0.56 10.82
-2.36 4.02 9.37 -4.26 6.90 1.75 -2.32 0.04 1.92 0.12 -0.00 0.80 0.00 0.00 0.00 9.39 0.16 -1.94 -8.59 1.75 22.95 0.00 0.00 0.00 0.08 -0.00 0.00 0.00 0.00 0.00 36.47 4.31 9.85 19.10 11.01 -59.63 0.00 0.00 0.00 -41.86 -12.22 11.50 -14.79 -9.46 -65.00 5.90 -0.56 10.82
-2.36 4.02 9.37 -4.27 7.11 1.60 -2.29 0.04 2.06 0.13 -0.00 0.81 0.00 0.00 0.00 9.40 0.14 -1.72 -8.51 1.72 22.88 0.00 0.00 0.00 0.08 -0.00 0.00 0.00 0.00 0.00 36.41 4.19 9.77 18.99 10.92 -59.49 0.00 0.00 0.00 -42.10 -12.52 11.39 -14.74 -9.36 -64.69 5.99 -0.59 11.25
-2.36 4.02 9.37 -4.30 7.33 1.64 -2.22 0.04 1.91 0.12 -0.00 1.04 0.00 0.00 0.00 9.49 0.14 -1.66 -8.38 1.68 22.60 0.00 0.00 0.00 0.07 0.00 -0.00 0.00 0.00 0.00 36.30 4.00 9.77 18.94 10.90 -59.54 0.00 0.00 0.00 -41.96 -12.63 11.35 -14.62 -9.24 -64.42 6.05 -0.58 10.85
-2.36 4.02 9.37 -4.33 7.53 1.60 -2.15 0.04 1.93 0.09 -0.00 1.08 0.00 0.00 0.00 9.53 0.13 -1.54 -8.29 1.66 22.65 0.00 0.00 0.00 0.10 -0.00 0.00 0.00 0.00 0.00 36.05 4.12 9.49 18.81 10.84 -59.61 0.00 0.00 0.00 -41.69 -12.75 11.11 -14.51 -9.14 -64.24 6.10 -0.58 10.92
-2.36 4.01 9.38 -4.34 7.57 1.44 -2.10 0.04 2.12 0.07 -0.00 1.04 0.00 0.00 0.00 9.59 0.10 -1.22 -8.21 1.62 22.32 0.00 0.00 0.00 0.07 -0.00 0.00 0.00 0.00 0.00 36.19 3.86 9.83 19.07 10.97 -59.50 0.00 0.00 0.00 -41.95 -12.61 11.25 -14.65 -9.18 -63.98 6.14 -0.59 11.04
-2.36 4.01 9.38 -4.34 7.57 1.44 -2.10 0.04 2.12 0.07 -0.00 1.04 0.00 0.00 0.00 9.48 0.09 -1.08 -8.01 1.56 22.05 0.00 0.00 0.00 0.07 -0.00 0.00 0.00 0.00 0.00 36.04 4.14 9.46 18.98 10.89 -59.39 0.00 0.00 0.00 -41.98 -12.68 10.95 -14.56 -9.08 -63.71 6.07 -0.55 10.44
-2.36 4.01 9.38 -4.38 7.78 1.40 -2.14 0.04 2.28 0.25 -0.00 0.79 0.00 0.00 0.00 9.43 0.07 -0.83 -7.86 1.52 21.80 0.00 0.00 0.00 0.09 -0.00 0.00 0.00 0.00 0.00 35.63 3.95 9.74 19.08 10.99 -59.60 0.00 0.00 0.00 -41.72 -12.77 10.79 -14.23 -8.85 -63.63 6.41 -0.56 10.07
-2.37 4.01 9.38 -4.42 7.75 1.28 -2.06 0.04 2.40 0.23 -0.00 0.77 0.00 0.00 0.00 9.42 0.04 -0.45 -7.74 1.45 21.25 0.00 0.00 0.00 0.08 -0.00 0.00 0.00 0.00 0.00 35.96 4.04 9.66 19.10 10.98 -59.50 0.00 0.00 0.00 -41.74 -12.82 10.46 -13.82 -8.62 -63.75 6.44 -0.57 10.17
-2.37 4.00 9.38 -4.43 7.55 1.21 -2.05 0.04 2.48 0.10 -0.00 0.90 0.00 0.00 0.00 9.34 0.01 -0.18 -7.75 1.43 20.91 0.00 0.00 0.00 0.05 0.00 -0.00 0.00 0.00 0.00 35.65 4.16 9.89 19.00 10.98 -59.76 0.00 0.00 0.00 -42.19 -12.58 10.44 -14.25 -8.81 -63.30 6.43 -0.58 10.25
-2.37 4.00 9.38 -4.50 7.57 1.20 -1.92 0.04 2.46 0.04 -0.00 0.92 0.00 0.00 0.00 9.37 -0.01 0.09 -7.62 1.38 20.48 0.00 0.00 0.00 0.07 0.00 -0.00 0.00 0.00 0.00 36.02 4.54 9.58 18.42 10.66 -59.85 0.00 0.00 0.00 -42.03 -12.54 10.25 -13.78 -8.55 -63.50 6.73 -0.57 9.61
-2.37 3.99 9.38 -4.51 7.55 1.09 -1.89 0.04 2.57 0.04 -0.00 1.03 0.00 0.00 0.00 9.29 -0.03 0.33 -7.43 1.32 20.19 0.00 0.00 0.00 0.04 0.00 -0.00 0.00 0.00 0.00 36.15 4.62 9.70 18.44 10.69 -59.93 0.00 0.00 0.00 -42.57 -12.79 10.11 -13.39 -8.32 -63.54 6.76 -0.57 9.71
-2.38 3.99 9.38 -4.56 7.55 0.98 -1.93 0.05 2.69 0.25 -0.00 1.00 0.00 0.00 0.00 9.29 -0.06 0.70 -7.40 1.29 19.76 0.00 0.00 0.00 0.03 0.00 -0.00 0.00 0.00 0.00 36.05 4.62 9.79 18.51 10.71 -59.82 0.00 0.00 0.00 -42.51 -12.47 10.13 -13.60 -8.43 -63.48 6.80 -0.56 9.49
-2.38 3.98 9.37 -4.46 7.55 0.90 -2.02 0.05 2.88 0.25 -0.00 0.91 0.00 0.00 0.00 9.10 -0.08 1.03 -7.21 1.23 19.40 0.00 0.00 0.00 0.05 0.00 -0.00 0.00 0.00 0.00 36.15 4.68 9.66 18.74 10.76 -59.43 0.00 0.00 0.00 -42.22 -11.99 10.29 -14.03 -8.63 -63.03 6.66 -0.56 9.55
-2.38 3.98 9.37 -4.53 7.55 0.90 -1.86 0.05 2.85 0.14 -0.00 0.94 0.00 0.00 0.00 9.14 -0.10 1.28 -6.97 1.16 18.94 0.00 0.00 0.00 0.04 0.00 -0.00 0.00 0.00 0.00 36.51 5.02 9.72 18.35 10.62 -59.82 0.00 0.00 0.00 -42.79 -12.69 9.57 -12.92 -8.02 -63.54 6.71 -0.55 9.29
